<svg xmlns="http://www.w3.org/2000/svg" width="148" height="118" viewBox="0 0 148 118">
  <g id="svgexport-16_9_" data-name="svgexport-16 (9)" transform="translate(0 -42.667)">
    <path id="Path_460" data-name="Path 460" d="M138.7,107.567H116.608L100.093,47.009a5.905,5.905,0,0,0-11.458.272L69.472,133.515,46.852,70.179a5.9,5.9,0,0,0-11.228.366L25.051,107.567H5.9a5.9,5.9,0,0,0,0,11.8H29.5a5.894,5.894,0,0,0,5.67-4.283l6.75-23.629,23.329,65.3a5.888,5.888,0,0,0,5.552,3.917c.124,0,.242-.006.366-.012a5.907,5.907,0,0,0,5.393-4.608l18.42-82.913,11.428,41.884a5.9,5.9,0,0,0,5.694,4.348h26.6a5.9,5.9,0,0,0,0-11.8Z" transform="translate(0 0)"/>
    <circle id="Ellipse_58" data-name="Ellipse 58" cx="10" cy="10" r="10" transform="translate(128 102.667)"/>
  </g>
</svg>
